<svg width="971" height="541" viewBox="0 0 971 541" fill="none" xmlns="http://www.w3.org/2000/svg">
<path d="M0 39.5C0 25.9702 0 19.2053 2.54931 14.0015C4.99018 9.0191 9.0191 4.99018 14.0015 2.54931C19.2053 0 25.9702 0 39.5 0H931.5C945.03 0 951.795 0 956.998 2.54931C961.981 4.99018 966.01 9.0191 968.451 14.0015C971 19.2053 971 25.9702 971 39.5V501.5C971 515.03 971 521.795 968.451 526.998C966.01 531.981 961.981 536.01 956.998 538.451C951.795 541 945.03 541 931.5 541H39.5C25.9702 541 19.2053 541 14.0015 538.451C9.0191 536.01 4.99018 531.981 2.54931 526.998C0 521.795 0 515.03 0 501.5V39.5Z" fill="white"/>
<path d="M0 39.5C0 25.9702 0 19.2053 2.54931 14.0015C4.99018 9.0191 9.0191 4.99018 14.0015 2.54931C19.2053 0 25.9702 0 39.5 0H931.5C945.03 0 951.795 0 956.998 2.54931C961.981 4.99018 966.01 9.0191 968.451 14.0015C971 19.2053 971 25.9702 971 39.5V501.5C971 515.03 971 521.795 968.451 526.998C966.01 531.981 961.981 536.01 956.998 538.451C951.795 541 945.03 541 931.5 541H39.5C25.9702 541 19.2053 541 14.0015 538.451C9.0191 536.01 4.99018 531.981 2.54931 526.998C0 521.795 0 515.03 0 501.5V39.5Z" fill="url(#paint0_radial_79_855)" fill-opacity="0.2"/>
<defs>
<radialGradient id="paint0_radial_79_855" cx="0" cy="0" r="1" gradientUnits="userSpaceOnUse" gradientTransform="translate(945.129 270.5) rotate(-170.505) scale(757.341 1470.3)">
<stop stop-color="#FEF17A" stop-opacity="0.55"/>
<stop offset="0.333333" stop-color="#DB915C"/>
<stop offset="0.75" stop-color="#D69F12"/>
<stop offset="0.973958" stop-color="#AB9939"/>
</radialGradient>
</defs>
</svg>
