<svg width="66" height="40" viewBox="0 0 66 40" fill="none" xmlns="http://www.w3.org/2000/svg">
<g id="Frame 2">
<g id="ico-/-24-/-user-/-account_circle">
<path id="Icon-color" d="M32.8805 6.75C25.1115 6.75 18.8135 12.9061 18.8135 20.5C18.8135 28.0939 25.1115 34.25 32.8805 34.25C40.6495 34.25 46.9476 28.0939 46.9476 20.5C46.9476 16.8533 45.4655 13.3559 42.8274 10.7773C40.1893 8.19866 36.6113 6.75 32.8805 6.75ZM32.8805 10.875C35.2112 10.875 37.1006 12.7218 37.1006 15C37.1006 17.2782 35.2112 19.125 32.8805 19.125C30.5498 19.125 28.6604 17.2782 28.6604 15C28.6604 12.7218 30.5498 10.875 32.8805 10.875ZM40.7862 26.22C38.9286 28.6653 35.9965 30.1068 32.8805 30.1068C29.7646 30.1068 26.8325 28.6653 24.9748 26.22C24.6924 25.812 24.6548 25.2875 24.8764 24.845L25.1718 24.24C25.8679 22.7976 27.3523 21.8767 28.9839 21.875H36.7771C38.3858 21.8771 39.8533 22.773 40.5611 24.185L40.8847 24.8312C41.1117 25.2774 41.074 25.8087 40.7862 26.22Z" fill="#7F5D04"/>
</g>
</g>
</svg>
